<svg width="20" height="20" viewBox="0 0 20 20" fill="none" xmlns="http://www.w3.org/2000/svg">
<path d="M10.4167 2.40381C8.50403 2.40381 6.66975 3.16359 5.31733 4.51602C3.9649 5.86844 3.20512 7.70273 3.20512 9.61534H0.80127L3.91826 12.7323L3.97435 12.8445L7.21152 9.61534H4.80768C4.80768 8.12775 5.39862 6.70109 6.45051 5.6492C7.5024 4.59732 8.92906 4.00637 10.4167 4.00637C11.9042 4.00637 13.3309 4.59732 14.3828 5.6492C15.4347 6.70109 16.0256 8.12775 16.0256 9.61534C16.0256 11.1029 15.4347 12.5296 14.3828 13.5815C13.3309 14.6334 11.9042 15.2243 10.4167 15.2243C8.87018 15.2243 7.46794 14.5913 6.45832 13.5737L5.3205 14.7115C5.98674 15.3851 6.78058 15.9191 7.65559 16.2823C8.53061 16.6455 9.46925 16.8306 10.4167 16.8269C12.3293 16.8269 14.1636 16.0671 15.516 14.7147C16.8684 13.3622 17.6282 11.528 17.6282 9.61534C17.6282 7.70273 16.8684 5.86844 15.516 4.51602C14.1636 3.16359 12.3293 2.40381 10.4167 2.40381V2.40381Z" fill="#2E2C33"/>
</svg>
